<?xml version="1.0" standalone="no"?>
<!DOCTYPE svg PUBLIC "-//W3C//DTD SVG 20010904//EN"
 "http://www.w3.org/TR/2001/REC-SVG-20010904/DTD/svg10.dtd">
<svg version="1.0" xmlns="http://www.w3.org/2000/svg"
 width="300.000000pt" height="300.000000pt" viewBox="0 0 300.000000 300.000000"
 preserveAspectRatio="xMidYMid meet">
<metadata>
Created by potrace 1.14, written by Peter Selinger 2001-2017
</metadata>
<g transform="translate(0.000000,300.000000) scale(0.100000,-0.100000)"
fill="#000000" stroke="none">
<path d="M695 2964 c-95 -14 -155 -34 -250 -81 -185 -93 -311 -246 -386 -468
l-24 -70 -2 -835 c-2 -943 -5 -898 78 -1063 105 -210 262 -331 517 -398 74
-20 105 -21 842 -23 421 -1 797 2 835 6 258 29 465 171 576 393 95 193 92 153
93 1080 1 809 1 810 -21 887 -86 294 -275 482 -569 564 -52 14 -149 17 -834
18 -552 1 -799 -2 -855 -10z"/>
</g>
</svg>
